<?xml version="1.0" encoding="UTF-8"?>
<svg width="14px" height="14px" viewBox="0 0 14 14" version="1.1" xmlns="http://www.w3.org/2000/svg" xmlns:xlink="http://www.w3.org/1999/xlink">
    <title>编组 10备份</title>
    <g id="美化" stroke="none" stroke-width="1" fill="none" fill-rule="evenodd">
        <g id="组件库" transform="translate(-1260.000000, -847.000000)" fill="#C61D29" fill-rule="nonzero">
            <g id="zhcc_zhankai备份" transform="translate(1260.000000, 847.000000)">
                <path d="M14,1.99654974 C14,0.893617021 13.1068966,0 12.0045977,0 L1.9954023,0 C0.893103448,0 0,0.893617021 0,1.99654974 L0,12.0034503 C0,13.106383 0.893103448,14 1.9954023,14 L11.9965517,14 C13.0988506,14 13.991954,13.106383 13.991954,12.0034503 L13.991954,1.99654974 L14,1.99654974 Z M13.0344828,12.0437033 C13.0344828,12.5991949 12.583908,13.0419781 12.0367816,13.0419781 L2.04367816,13.0419781 C1.48850575,13.0419781 1.04597701,12.5911443 1.04597701,12.0437033 L1.04597701,2.04485336 C1.04597701,1.49741231 1.49655172,1.04657849 2.04367816,1.04657849 L12.0367816,1.04657849 C12.591954,1.04657849 13.0344828,1.49741231 13.0344828,2.04485336 L13.0344828,12.0437033 Z" id="形状"></path>
                <path d="M7.43448276,5.12018401 L10.9425287,8.63024727 C11.1356322,8.82346176 11.1356322,9.13743531 10.9425287,9.3306498 C10.7494253,9.52386429 10.4356322,9.52386429 10.2425287,9.3306498 L6.73448276,5.82058654 C6.54137931,5.62737205 6.54137931,5.3133985 6.73448276,5.12018401 C6.92758621,4.92696952 7.24137931,4.92696952 7.43448276,5.12018401 Z" id="路径" transform="translate(8.838506, 7.225417) rotate(-180.000000) translate(-8.838506, -7.225417) "></path>
                <path d="M7.44252874,5.12018401 C7.63563218,5.3133985 7.63563218,5.62737205 7.44252874,5.82058654 L3.93448276,9.3306498 C3.74137931,9.52386429 3.42758621,9.52386429 3.23448276,9.3306498 C3.04137931,9.13743531 3.04137931,8.82346176 3.23448276,8.63024727 L6.74252874,5.12018401 C6.93563218,4.92696952 7.24942529,4.92696952 7.44252874,5.12018401 Z" id="路径" transform="translate(5.338506, 7.225417) rotate(-180.000000) translate(-5.338506, -7.225417) "></path>
            </g>
        </g>
    </g>
</svg>