<?xml version="1.0" encoding="UTF-8"?>
<svg width="20px" height="20px" viewBox="0 0 20 20" version="1.1" xmlns="http://www.w3.org/2000/svg" xmlns:xlink="http://www.w3.org/1999/xlink">
    <title>shouqi</title>
    <g id="美化" stroke="none" stroke-width="1" fill="none" fill-rule="evenodd">
        <g id="组件库" transform="translate(-1260.000000, -110.000000)" fill="#FFAEA9" fill-rule="nonzero">
            <g id="shouqi" transform="translate(1260.000000, 110.000000)">
                <path d="M10,0 C15.5229657,0 20,4.47725798 20,10 C20,15.522742 15.522742,20 10,20 C4.47725798,20 6.35875102e-16,15.5229657 6.35875102e-16,10 C6.35875102e-16,4.47703425 4.47703425,0 10,0 Z M8.6113162,4.44436939 C8.15065888,4.44436939 7.77792514,4.79942725 7.77792514,5.2377117 C7.77792514,5.47866747 7.89068618,5.69389444 8.06832673,5.8395418 L12.4346153,9.99798644 L8.01060474,14.2107971 L8.01172338,14.2112446 C7.86115399,14.359353 7.77747947,14.5566817 7.77792514,14.7618408 C7.77792514,15.2001253 8.15088261,15.5556301 8.6113162,15.5556301 C8.83593977,15.5556301 9.03953285,15.4710607 9.18943106,15.3330201 L14.1902141,10.5711793 L14.1897667,10.5707318 C14.3468242,10.4266506 14.4445936,10.2243998 14.4445936,9.99977627 L14.4445936,9.99642034 C14.4445936,9.81676623 14.3819496,9.65120702 14.2763496,9.51831219 L14.1895429,9.42456988 L9.18987852,4.66250531 L9.18786496,4.66451887 C9.03326845,4.52312236 8.82654317,4.44414614 8.6113162,4.44436939 L8.6113162,4.44436939 Z" id="形状"></path>
            </g>
        </g>
    </g>
</svg>