<?xml version="1.0" encoding="UTF-8"?>
<svg width="16px" height="20px" viewBox="0 0 16 20" version="1.1" xmlns="http://www.w3.org/2000/svg" xmlns:xlink="http://www.w3.org/1999/xlink">
    <title>shouqi 2</title>
    <g id="美化" stroke="none" stroke-width="1" fill="none" fill-rule="evenodd">
        <g id="组件库" transform="translate(-1425.000000, -110.000000)" fill="#FFAEA9" fill-rule="nonzero">
            <g id="banyuanshensuo" transform="translate(1432.750000, 120.000000) scale(-1, 1) translate(-1432.750000, -120.000000) translate(1425.250000, 110.000000)">
                <path d="M15,0 L15,20 L12,20 C5.37225,20 0,15.523125 0,10 C0,4.476875 5.37225,0 12,0 L15,0 Z M10.805354,4.44436939 C10.5901271,4.44414614 10.3834018,4.52312236 10.2288053,4.66451887 L10.2288053,4.66451887 L10.2267917,4.66250531 L5.2271273,9.42456988 L5.14032058,9.51831219 C5.03472065,9.65120702 4.97207663,9.81676623 4.97207663,9.99642034 L4.97207663,9.99642034 C4.97207663,10.2243998 5.06984605,10.4266506 5.22690357,10.5707318 L5.22690357,10.5707318 L5.22645611,10.5711793 L10.2272392,15.3330201 C10.3771374,15.4710607 10.5807305,15.5556301 10.805354,15.5556301 C11.2657876,15.5556301 11.6387451,15.2001253 11.6387451,14.7618408 C11.6391908,14.5566817 11.5555162,14.359353 11.4049468,14.2112446 L11.4049468,14.2112446 L11.4060655,14.2107971 L6.98205492,9.99798644 L11.3483435,5.8395418 C11.525984,5.69389444 11.6387451,5.47866747 11.6387451,5.2377117 C11.6387451,4.79942725 11.2660113,4.44436939 10.805354,4.44436939 Z" id="形状" transform="translate(7.500000, 10.000000) scale(-1, 1) translate(-7.500000, -10.000000) "></path>
            </g>
        </g>
    </g>
</svg>