<?xml version="1.0" encoding="UTF-8"?>
<svg width="14px" height="14px" viewBox="0 0 14 14" version="1.1" xmlns="http://www.w3.org/2000/svg" xmlns:xlink="http://www.w3.org/1999/xlink">
    <title>编组 6</title>
    <g id="美化" stroke="none" stroke-width="1" fill="none" fill-rule="evenodd">
        <g id="组件库" transform="translate(-1260.000000, -823.000000)" fill="#333333" fill-rule="nonzero">
            <g id="编组-6" transform="translate(1260.000000, 823.000000)">
                <path d="M14,1.99654974 C14,0.893617021 13.1068966,0 12.0045977,0 L1.9954023,0 C0.893103448,0 0,0.893617021 0,1.99654974 L0,12.0034503 C0,13.106383 0.893103448,14 1.9954023,14 L11.9965517,14 C13.0988506,14 13.991954,13.106383 13.991954,12.0034503 L13.991954,1.99654974 L14,1.99654974 Z M13.0344828,12.0437033 C13.0344828,12.5991949 12.583908,13.0419781 12.0367816,13.0419781 L2.04367816,13.0419781 C1.48850575,13.0419781 1.04597701,12.5911443 1.04597701,12.0437033 L1.04597701,2.04485336 C1.04597701,1.49741231 1.49655172,1.04657849 2.04367816,1.04657849 L12.0367816,1.04657849 C12.591954,1.04657849 13.0344828,1.49741231 13.0344828,2.04485336 L13.0344828,12.0437033 Z" id="形状备份-4"></path>
                <path d="M3.93448276,5.12018401 L7.44252874,8.63024727 C7.63563218,8.82346176 7.63563218,9.13743531 7.44252874,9.3306498 C7.24942529,9.52386429 6.93563218,9.52386429 6.74252874,9.3306498 L3.23448276,5.82058654 C3.04137931,5.62737205 3.04137931,5.3133985 3.23448276,5.12018401 C3.42758621,4.92696952 3.74137931,4.92696952 3.93448276,5.12018401 Z" id="路径备份-2"></path>
                <path d="M10.9425287,5.12018401 C11.1356322,5.3133985 11.1356322,5.62737205 10.9425287,5.82058654 L7.43448276,9.3306498 C7.24137931,9.52386429 6.92758621,9.52386429 6.73448276,9.3306498 C6.54137931,9.13743531 6.54137931,8.82346176 6.73448276,8.63024727 L10.2425287,5.12018401 C10.4356322,4.92696952 10.7494253,4.92696952 10.9425287,5.12018401 Z" id="路径备份-3"></path>
            </g>
        </g>
    </g>
</svg>