<?xml version="1.0" encoding="UTF-8"?>
<svg width="14px" height="14px" viewBox="0 0 14 14" version="1.1" xmlns="http://www.w3.org/2000/svg" xmlns:xlink="http://www.w3.org/1999/xlink">
    <title>编组 8</title>
    <g id="美化" stroke="none" stroke-width="1" fill="none" fill-rule="evenodd">
        <g id="组件库" transform="translate(-1316.000000, -823.000000)" fill="#333333">
            <g id="编组-8" transform="translate(1316.000000, 823.000000)">
                <path d="M10.4111628,2.20305454 L1.3857827,2.20305454 C0.61828258,2.20305454 0,2.82132317 0,3.58883723 L0,12.6142173 C0,13.3817174 0.618268631,14 1.3857827,14 L10.4111628,14 C11.1786768,14 11.7969594,13.3817314 11.7969594,12.6142173 L11.7969594,3.58883723 C11.7969594,2.82133712 11.1786768,2.20305454 10.4111628,2.20305454 Z M10.7309712,12.6142173 C10.7313226,12.6991418 10.6977421,12.7806902 10.6376896,12.8407401 C10.5776371,12.90079 10.4960873,12.9343669 10.4111628,12.9340119 L1.3857827,12.9340119 C1.30086059,12.9343631 1.21931441,12.9007846 1.15926489,12.8407351 C1.09921538,12.7806856 1.06563686,12.6991394 1.06598821,12.6142173 L1.06598821,3.58883723 C1.06563686,3.50391513 1.09921538,3.42236895 1.15926489,3.36231943 C1.21931441,3.30226992 1.30086059,3.2686914 1.3857827,3.26904269 L10.4111628,3.26904269 C10.4960873,3.26868767 10.5776371,3.30226454 10.6376896,3.36231446 C10.6977421,3.42236438 10.7313226,3.5039127 10.7309712,3.58883723 L10.7309712,12.6142173 Z" id="形状" fill-rule="nonzero"></path>
                <path d="M12.6142173,0 L3.58883723,0 C3.2974606,0 3.05582779,0.241632806 3.05582779,0.53300944 C3.05582779,0.824386074 3.2974606,1.06599098 3.58883723,1.06599098 L12.6142173,1.06599098 C12.6991418,1.06563684 12.7806902,1.09921726 12.8407401,1.15926981 C12.90079,1.21932235 12.9343669,1.30087213 12.934009,1.38579664 L12.934009,10.4111767 C12.934009,10.7025394 13.1756279,10.9441722 13.4670045,10.9441722 C13.7583811,10.9441722 14,10.7025394 14,10.4111628 L14,1.38579664 C14,0.61828258 13.3817314,0 12.6142173,0 L12.6142173,0 Z" id="路径" fill-rule="nonzero"></path>
                <text id="CSS" font-family="PingFangSC-Medium, PingFang SC" font-size="4" font-weight="400">
                    <tspan x="2" y="10">CSS</tspan>
                </text>
            </g>
        </g>
    </g>
</svg>