<?xml version="1.0" encoding="UTF-8"?>
<svg width="14px" height="14px" viewBox="0 0 14 14" version="1.1" xmlns="http://www.w3.org/2000/svg" xmlns:xlink="http://www.w3.org/1999/xlink">
    <title>编组 21</title>
    <g id="美化" stroke="none" stroke-width="1" fill="none" fill-rule="evenodd">
        <g id="组件库" transform="translate(-1286.000000, -847.000000)" fill="#C61D29" fill-rule="nonzero">
            <g id="编组-21" transform="translate(1286.000000, 847.000000)">
                <path d="M10.4111628,2.20305454 L1.3857827,2.20305454 C0.61828258,2.20305454 0,2.82132317 0,3.58883723 L0,12.6142173 C0,13.3817174 0.618268631,14 1.3857827,14 L10.4111628,14 C11.1786768,14 11.7969594,13.3817314 11.7969594,12.6142173 L11.7969594,3.58883723 C11.7969594,2.82133712 11.1786768,2.20305454 10.4111628,2.20305454 Z M10.7309712,12.6142173 C10.7313226,12.6991418 10.6977421,12.7806902 10.6376896,12.8407401 C10.5776371,12.90079 10.4960873,12.9343669 10.4111628,12.9340119 L1.3857827,12.9340119 C1.30086059,12.9343631 1.21931441,12.9007846 1.15926489,12.8407351 C1.09921538,12.7806856 1.06563686,12.6991394 1.06598821,12.6142173 L1.06598821,3.58883723 C1.06563686,3.50391513 1.09921538,3.42236895 1.15926489,3.36231943 C1.21931441,3.30226992 1.30086059,3.2686914 1.3857827,3.26904269 L10.4111628,3.26904269 C10.4960873,3.26868767 10.5776371,3.30226454 10.6376896,3.36231446 C10.6977421,3.42236438 10.7313226,3.5039127 10.7309712,3.58883723 L10.7309712,12.6142173 Z" id="形状备份-7"></path>
                <path d="M12.6142173,0 L3.58883723,0 C3.2974606,0 3.05582779,0.241632806 3.05582779,0.53300944 C3.05582779,0.824386074 3.2974606,1.06599098 3.58883723,1.06599098 L12.6142173,1.06599098 C12.6991418,1.06563684 12.7806902,1.09921726 12.8407401,1.15926981 C12.90079,1.21932235 12.9343669,1.30087213 12.934009,1.38579664 L12.934009,10.4111767 C12.934009,10.7025394 13.1756279,10.9441722 13.4670045,10.9441722 C13.7583811,10.9441722 14,10.7025394 14,10.4111628 L14,1.38579664 C14,0.61828258 13.3817314,0 12.6142173,0 L12.6142173,0 Z" id="路径备份-6"></path>
                <path d="M3.5106383,9.25939578 L4.87234043,7.89769365 C4.95744681,7.81258727 4.95744681,7.6849277 4.87234043,7.59982131 C4.78723404,7.51471493 4.65957447,7.51471493 4.57446809,7.59982131 L3.06382979,9.11045961 C3.0212766,9.1530128 3,9.19556599 3,9.25939578 C3,9.32322557 3.0212766,9.36577876 3.06382979,9.40833195 L4.57446809,10.9189702 C4.65957447,11.0040766 4.78723404,11.0040766 4.87234043,10.9189702 C4.95744681,10.8338639 4.95744681,10.7062043 4.87234043,10.6210979 L3.5106383,9.25939578 Z M6.59574468,7.00407663 C6.4893617,6.98280004 6.36170213,7.04662982 6.34042553,7.1530128 L5.23404255,11.2593958 C5.21276596,11.3657788 5.27659574,11.4934383 5.38297872,11.5147149 C5.4893617,11.5359915 5.61702128,11.4721617 5.63829787,11.3657788 L6.74468085,7.25939578 C6.78723404,7.1530128 6.72340426,7.02535323 6.59574468,7.00407663 Z M8.93617021,9.11045961 L7.42553191,7.59982131 C7.34042553,7.51471493 7.21276596,7.51471493 7.12765957,7.59982131 C7.04255319,7.6849277 7.04255319,7.81258727 7.12765957,7.89769365 L8.4893617,9.25939578 L7.12765957,10.6210979 C7.04255319,10.7062043 7.04255319,10.8338639 7.12765957,10.9189702 C7.21276596,11.0040766 7.34042553,11.0040766 7.42553191,10.9189702 L8.93617021,9.40833195 C8.9787234,9.36577876 9,9.30194897 9,9.25939578 C9,9.19556599 8.9787234,9.1530128 8.93617021,9.11045961 L8.93617021,9.11045961 Z" id="形状备份-8"></path>
            </g>
        </g>
    </g>
</svg>