<?xml version="1.0" encoding="UTF-8"?>
<svg width="15px" height="16px" viewBox="0 0 15 16" version="1.1" xmlns="http://www.w3.org/2000/svg" xmlns:xlink="http://www.w3.org/1999/xlink">
    <title>消息提醒</title>
    <g id="美化" stroke="none" stroke-width="1" fill="none" fill-rule="evenodd">
        <g id="组件库" transform="translate(-1385.000000, -22.000000)" fill="#333333" fill-rule="nonzero">
            <g id="消息提醒" transform="translate(1385.000000, 22.000000)">
                <path d="M1.04700105,12.235285 L1.50136265,12.235285 C1.73991455,12.235285 1.93346631,12.0470496 1.93346631,11.8150493 L1.93346631,6.51387867 C1.93346631,3.72705384 4.01898442,1.3392871 6.7741856,0.98682278 L6.7741856,0.705882024 L6.7741856,0.705882131 C6.77418554,0.316034706 7.09914553,0 7.5,0 C7.90085996,0 8.22581989,0.316034706 8.22581989,0.705882131 C8.22581989,0.705882131 8.22581989,0.705882131 8.22581989,0.705882131 L8.22581989,0.987293843 C10.9442454,1.33317636 13.0626691,3.59152667 13.0626691,6.35295076 L13.0626691,10.5882551 L13.0626691,10.5882551 C13.0626691,10.9781025 12.7377092,11.2941373 12.336852,11.2941373 C11.9359947,11.2941373 11.6110348,10.9781025 11.6110348,10.5882551 L11.6110348,6.35295076 C11.6110348,4.04377964 9.60875325,2.21177971 7.22323428,2.36142408 C5.07384988,2.4964829 3.38510457,4.33789559 3.38510457,6.51390579 L3.38510457,11.8150765 C3.38510457,11.9595471 3.36768495,12.1002539 3.33526504,12.2353121 L14.2743019,12.2353121 L14.2743019,12.2353121 C14.6751591,12.2353766 15,12.5514627 15,12.941312 C15,13.3310687 14.6750659,13.6470783 14.2743019,13.6470783 L0.725698092,13.6470783 L0.725698072,13.6470783 C0.324840859,13.6470783 2.23167797e-13,13.3309278 2.23167797e-13,12.9410785 C2.23167797e-13,12.5513218 0.324934138,12.2353778 0.725698072,12.2353121 L1.04699432,12.2353121 L1.04700105,12.235285 Z M6.04837839,16 L6.04837837,16 C5.64752115,15.9999355 5.32261481,15.6838495 5.32268029,15.2940001 C5.32274659,14.9042434 5.64761443,14.5882994 6.04837837,14.5882338 L8.95165487,14.5882338 L8.95165491,14.5882338 C9.35251213,14.5882983 9.67741847,14.9043843 9.67735298,15.2942337 C9.67728668,15.6839904 9.35241885,15.9999344 8.95165491,16 L6.04837841,16 L6.04837839,16 Z" id="形状"></path>
            </g>
        </g>
    </g>
</svg>