<?xml version="1.0" encoding="UTF-8"?>
<svg width="101px" height="34px" viewBox="0 0 101 34" version="1.1" xmlns="http://www.w3.org/2000/svg" xmlns:xlink="http://www.w3.org/1999/xlink">
    <!-- Generator: Sketch 62 (91390) - https://sketch.com -->
    <title>编组</title>
    <desc>Created with Sketch.</desc>
    <defs>
        <polygon id="path-1" points="0 0.256830879 35.7062788 0.256830879 35.7062788 10.4876383 0 10.4876383"></polygon>
        <polygon id="path-3" points="0.433551852 0.39514375 65.2251587 0.39514375 65.2251587 14.0227688 0.433551852 14.0227688"></polygon>
    </defs>
    <g id="页面-1" stroke="none" stroke-width="1" fill="none" fill-rule="evenodd">
        <g id="登录可点击" transform="translate(-31.000000, -17.000000)">
            <g id="编组" transform="translate(31.000000, 17.000000)">
                <g transform="translate(0.000000, 0.274444)">
                    <mask id="mask-2" fill="white">
                        <use xlink:href="#path-1"></use>
                    </mask>
                    <g id="Clip-2"></g>
                    <path d="M33.195173,0.483278125 C33.2213582,0.372778125 33.2096016,0.391371875 33.3244958,0.361621875 C33.3955698,0.281934375 33.8936228,0.223496875 34.0876069,0.278215625 L34.0876069,0.317528125 C34.1886069,0.333996875 34.2847974,0.346746875 34.3879349,0.361621875 C34.4787815,0.340371875 34.5936757,0.230934375 34.7710937,0.278215625 C34.8619402,0.305840625 34.9966069,0.400934375 35.1531836,0.361621875 L35.1531836,0.317528125 C35.3535804,0.262809375 35.5288608,0.287778125 35.7062788,0.317528125 L35.7062788,0.608121875 C35.5684058,0.608121875 35.5144323,0.626184375 35.4102259,0.646903125 C35.3567868,0.870028125 35.2846439,0.826996875 35.1125698,0.930059375 C35.0997444,0.953965625 35.0863847,0.983715625 35.0687497,1.00974687 L34.7326175,1.00974687 L34.7326175,1.04799687 L34.6407021,1.04799687 L34.6407021,1.08943437 L34.5124481,1.08943437 L34.5124481,1.13140312 C34.3569402,1.11812187 34.2035698,1.10430937 34.0459243,1.08943437 C34.0373741,1.11812187 34.0186704,1.14893437 34.003173,1.17177812 L33.9176704,1.17177812 L33.9176704,1.21534062 L33.8294958,1.21534062 L33.8294958,1.25465312 C33.6761254,1.30565312 33.571919,1.18027812 33.4938979,1.17177812 L33.449009,1.17177812 L33.449009,1.21534062 L33.3244958,1.21534062 L33.3244958,1.25465312 L32.8098767,1.25465312 C32.7965169,1.27962187 32.7810196,1.30990312 32.7681942,1.33646562 L32.6837603,1.33646562 L32.6837603,1.37418437 C32.512755,1.39171562 32.3412153,1.40287187 32.1702101,1.41562187 L32.1702101,1.37418437 L31.8746915,1.37418437 L31.8746915,1.41562187 L31.4867233,1.41562187 L31.4867233,1.45493437 C31.4177868,1.46874687 31.3509878,1.48096562 31.2777762,1.49849687 C31.3269402,1.54099687 31.2777762,1.51496562 31.3643476,1.53887187 C31.4749667,1.71949687 31.6465063,1.73224687 31.6630725,2.02762187 C31.6107021,2.06055937 31.6587974,2.01912187 31.6192524,2.06374687 L31.2371624,2.06374687 L31.2371624,2.10624687 L31.1067709,2.10624687 L31.1067709,2.14768437 L31.0682947,2.14768437 C30.8935487,2.13121562 30.7204058,2.11793437 30.5526069,2.10624687 C30.5397815,2.13121562 30.5242841,2.15724687 30.507718,2.18540312 L30.3799984,2.18540312 L30.3799984,2.22471562 L30.2581571,2.22471562 L30.2581571,2.26509062 L30.0411942,2.26509062 L30.0411942,2.30652812 L29.8269032,2.30652812 L29.8269032,2.35009062 L29.6580354,2.35009062 L29.6580354,2.38940312 L29.5335222,2.38940312 L29.5335222,2.42924687 L29.4009931,2.42924687 L29.4009931,2.46962187 L29.317628,2.46962187 L29.317628,2.50787187 L29.2310566,2.50787187 C29.2187656,2.53921562 29.2005963,2.56471562 29.1915116,2.59393437 C29.0472259,2.57959062 28.906681,2.56471562 28.7602577,2.55143437 L28.7602577,2.59393437 C28.7196439,2.60668437 28.6779614,2.61890312 28.640554,2.63324687 L28.5454323,2.71452812 L28.5454323,2.79527812 C28.4679455,2.89515312 28.3888556,2.86380937 28.337554,3.04018437 C28.270755,3.05346562 27.9453106,3.16555937 27.9105751,3.19902812 L27.9105751,3.28296562 C27.8688926,3.30899687 27.8282788,3.33715312 27.7801836,3.36371562 L27.7801836,3.44605937 C27.7262101,3.48218437 27.6706333,3.52255937 27.6166598,3.56612187 L27.6166598,3.60649687 L27.273046,3.60649687 C27.1581519,3.48112187 27.046464,3.49280937 26.8898873,3.56612187 L26.8898873,3.60649687 L26.8001095,3.60649687 L26.8001095,3.64740312 C26.5184852,3.67184062 26.2373952,3.70105937 25.9525646,3.72815312 L25.9525646,3.76640312 C25.8606492,3.79668437 25.7794217,3.82165312 25.6949878,3.84927812 L25.6949878,3.89018437 L25.610554,3.89018437 C25.595591,3.91887187 25.5811624,3.94384062 25.5678026,3.97199687 L25.4806968,3.97199687 C25.4694746,4.00015312 25.4561148,4.02671562 25.4400831,4.05380937 L25.3513741,4.05380937 C25.3390831,4.07877812 25.3251889,4.10693437 25.3118291,4.13509062 L24.9724905,4.13509062 L24.9724905,4.17440312 C24.6304799,4.20202812 24.2879349,4.22699687 23.9496651,4.25621562 C23.7962947,4.21371562 23.5686439,4.15474687 23.3922947,4.21371562 L23.3922947,4.25621562 L23.2683159,4.25621562 L23.2683159,4.29234062 L23.1389931,4.29234062 C23.1250989,4.32687187 23.1106704,4.35396562 23.095173,4.37680937 L23.0123423,4.37680937 C22.8974481,4.49793437 22.7841571,4.62065312 22.6714005,4.74071562 L22.4998608,4.74071562 L22.4998608,4.78215312 L21.6485751,4.78215312 L21.6485751,4.82571562 L21.5208556,4.82571562 L21.5208556,4.86449687 L21.0912048,4.86449687 L21.0912048,4.90912187 L21.0035646,4.90912187 C20.9928767,4.93249687 20.9784481,4.95959062 20.9634852,4.98562187 L20.8341624,4.98562187 L20.8341624,5.02705937 L20.0283,5.02705937 C19.9994429,5.06637187 19.9679138,5.10515312 19.9438661,5.14871562 C19.8706545,5.16305937 19.8022524,5.17474687 19.727972,5.18802812 L19.727972,5.23159062 L19.2614481,5.23159062 L19.2614481,5.26665312 C19.1160937,5.34899687 18.9766175,5.43293437 18.8334005,5.51262187 L18.8334005,5.59602812 C18.8157656,5.62684062 18.6853741,5.82712187 18.6613265,5.84252812 L18.148845,5.84252812 C17.8773741,5.53971562 17.6507921,6.06087187 17.2596175,5.95993437 L17.2596175,5.92062187 C17.0993,5.90627812 16.9469984,5.89671562 16.7882841,5.87812187 L16.7882841,5.92062187 L16.7006439,5.92062187 C16.6621677,5.97534062 16.6172788,6.02740312 16.5766651,6.08159062 C16.4922312,6.09380937 16.4061942,6.11240312 16.318554,6.12409062 L16.318554,6.16021562 L15.7611836,6.16021562 L15.0456333,6.16021562 L15.0456333,6.20271562 C14.9868503,6.21812187 14.926464,6.23087187 14.8692841,6.24415312 C14.8441677,6.34934062 14.8040884,6.37590312 14.7447709,6.44762187 L14.7009508,6.44762187 C14.6897286,6.49968437 14.672628,6.55652812 14.6592683,6.60752812 C14.6165169,6.63727812 14.5726968,6.66543437 14.5320831,6.68934062 L14.5320831,6.73290312 L14.4412365,6.73290312 C14.4150513,6.77115312 14.3856598,6.80993437 14.3584058,6.85030937 C14.2499243,6.90927812 13.6332365,6.99852812 13.4205487,6.93318437 L13.4205487,6.88962187 C13.3366492,6.88059062 13.2522153,6.86465312 13.1688503,6.85030937 C13.1218238,6.97568437 13.0812101,7.09627812 13.0405963,7.21740312 C12.9566968,7.24874687 12.8273741,7.31515312 12.7386651,7.34224687 L12.5291836,7.34224687 L12.5291836,7.38262187 L12.3555063,7.38262187 L12.3555063,7.41768437 L12.1887762,7.41768437 L12.1887762,7.46018437 L12.0583847,7.46018437 L12.0583847,7.50268437 L11.9306651,7.50268437 L11.9306651,7.54624687 C11.8034799,7.55687187 11.6752259,7.57121562 11.5512471,7.58290312 L11.5512471,7.62221562 L11.4604005,7.62221562 C11.4486439,7.64612187 11.4331466,7.67640312 11.4203212,7.70615312 L11.3337497,7.70615312 L11.3337497,7.74280937 L11.2076333,7.74280937 L11.2076333,7.78530937 L11.1221307,7.78530937 C11.1071677,7.81399687 11.0927392,7.83896562 11.0793794,7.86605937 C11.0238026,7.88040312 10.9634164,7.89634062 10.9051677,7.90537187 C10.8934111,7.94787187 10.8747074,7.98718437 10.8672259,8.03180937 L10.8244746,8.03180937 C10.7950831,8.06740312 10.7705011,8.11202812 10.7400407,8.15134062 L10.6524005,8.15134062 L10.6524005,8.19277812 C10.3007709,8.22943437 9.94379735,8.27405937 9.58468624,8.31443437 L9.58468624,8.35693437 L9.4612418,8.35693437 C9.40299312,8.42015312 9.34581323,8.48762187 9.29130529,8.55827812 C9.13045344,8.56943437 8.97815185,8.58324687 8.81836878,8.59652812 L8.81836878,8.63477812 L8.6911836,8.63477812 L8.6911836,8.67727812 L8.5650672,8.67727812 L8.5650672,8.71871562 L8.3945963,8.71871562 L8.3945963,8.75962187 C8.33848519,8.77715312 8.2807709,8.78830937 8.22465979,8.79999687 L8.22465979,8.84037187 C8.13595079,8.85365312 8.05472328,8.86640312 7.96708307,8.88180937 L7.96708307,8.92218437 C7.84150106,8.90677812 7.71110952,8.89509062 7.5860619,8.88180937 L7.5860619,8.92218437 C7.52834762,8.93493437 7.47223651,8.94821562 7.41238466,8.96149687 L7.41238466,9.04065312 C7.2894746,9.07093437 7.27504603,9.09165312 7.24458571,9.20534062 C7.08800899,9.23349687 6.92929471,9.25952812 6.77485556,9.28874687 C6.76042698,9.31265312 6.7465328,9.34346562 6.72996667,9.36843437 L6.60491905,9.36843437 C6.58781852,9.39446562 6.57766508,9.42049687 6.56109894,9.45024687 L6.47613069,9.45024687 L6.47613069,9.49221562 L6.38955926,9.49221562 L6.38955926,9.53152812 C5.99517831,9.61121562 5.59545344,9.69302812 5.2000037,9.77430937 C5.15297725,9.82796562 5.11343228,9.87896562 5.07281852,9.93580937 L4.94189259,9.93580937 L4.94189259,9.97671562 L4.7708873,9.97671562 L4.7708873,10.0213406 L4.68859101,10.0213406 L4.68859101,10.0574656 L4.55926825,10.0574656 L4.55926825,10.0978406 C4.50155397,10.1132469 4.44223651,10.1259969 4.38772857,10.1414031 C4.37864392,10.1695594 4.36154339,10.1955906 4.34604603,10.2216219 L4.26161217,10.2216219 L4.26161217,10.2588094 C4.21886085,10.2742156 4.17824709,10.2890906 4.13228942,10.3013094 L4.13228942,10.3831219 L4.04838995,10.3831219 L4.04838995,10.4219031 L3.62408307,10.4219031 L3.62408307,10.4654656 C3.48086614,10.4495281 3.33978677,10.4373094 3.19069153,10.4219031 L3.19069153,10.4654656 C2.91922063,10.5286844 2.54674974,10.4426219 2.38589788,10.3831219 L2.25657513,10.3831219 C2.24428413,10.3554969 2.22932116,10.3273406 2.21809894,10.3013094 L1.91616772,10.3013094 L1.91616772,10.2588094 L1.66179735,10.2588094 L1.66179735,10.2216219 L1.19634233,10.2216219 L1.19634233,10.1785906 C1.13435291,10.1695594 1.0782418,10.1509656 1.01999312,10.1414031 C1.00716772,10.0898719 0.995945503,10.0314344 0.979913757,9.97671562 L0.937162434,9.97671562 L0.937162434,9.81680937 L0.895479894,9.81680937 L0.895479894,9.73605937 L0.852728571,9.73605937 L0.852728571,9.61121562 L0.807839683,9.61121562 C0.753331746,9.54374687 0.692945503,9.47734062 0.638971958,9.40668437 L0.552400529,9.40668437 C0.510183598,9.35515312 0.467432275,9.30202812 0.425749735,9.24305937 C0.38192963,9.23349687 0.34024709,9.22021562 0.297495767,9.20534062 C0.22535291,9.11237187 0.15214127,9.01568437 0.0848079365,8.92218437 L0.0848079365,8.84037187 L0.0425910053,8.84037187 C0.0292312169,8.69215312 0.0158714286,8.54552812 -0.00016031746,8.39412187 L0.0425910053,8.39412187 C0.0698449735,8.31443437 0.0992365079,8.22943437 0.125421693,8.15134062 L0.0848079365,8.15134062 L0.0848079365,7.30080937 L0.0848079365,6.97568437 L0.125421693,6.97568437 L0.125421693,6.88962187 L0.169241799,6.88962187 C0.23924709,6.80993437 0.312993122,6.73290312 0.38192963,6.65215312 C0.425749735,6.63727812 0.467432275,6.62293437 0.510183598,6.60752812 L0.510183598,6.52730937 C0.540643915,6.51615312 0.566829101,6.49968437 0.597289418,6.48905937 L0.597289418,6.44762187 C0.680654497,6.43115312 0.76508836,6.41840312 0.852728571,6.40724687 C0.867157143,6.37802812 0.881051323,6.35518437 0.895479894,6.32649687 L0.979913757,6.32649687 C1.01999312,6.27230937 1.06381323,6.21812187 1.10870212,6.16021562 C1.18137937,6.11771562 1.37643228,6.11771562 1.44964392,6.08159062 C1.51858042,5.98596562 1.58858571,5.89671562 1.66179735,5.79684062 L1.7473,5.79684062 L1.7473,5.75752812 C1.93914656,5.68421562 2.1261836,5.86324687 2.21809894,5.84252812 C2.22932116,5.81171562 2.24428413,5.78462187 2.25657513,5.75752812 L2.38589788,5.75752812 C2.39979206,5.73149687 2.41528942,5.70387187 2.42864921,5.67571562 C2.56972857,5.65074687 2.71241111,5.62152812 2.85562804,5.59602812 L2.85562804,5.55405937 L2.97960688,5.55405937 L2.97960688,5.51262187 L3.11160159,5.51262187 L3.11160159,5.47437187 L3.45361217,5.47437187 L3.45361217,5.43293437 L3.53537407,5.43293437 C3.55194021,5.40690312 3.56850635,5.37980937 3.58026296,5.34899687 L3.66469683,5.34899687 L3.66469683,5.30755937 L3.74913069,5.30755937 L3.83463333,5.23159062 L3.92120476,5.23159062 C3.93189259,5.20130937 3.94738995,5.17474687 3.96074974,5.14871562 L4.04838995,5.14871562 C4.06228413,5.12055937 4.07564392,5.09665312 4.0895381,5.06637187 L4.17824709,5.06637187 C4.19160688,5.04087187 4.20710423,5.01377812 4.21886085,4.98562187 L4.34604603,4.98562187 L4.34604603,4.94630937 L4.90127884,4.94630937 C5.36673386,4.82571562 5.83432646,4.70140312 6.30833175,4.58187187 L6.30833175,4.53830937 C6.38955926,4.50962187 6.47613069,4.48465312 6.56109894,4.45755937 L6.56109894,4.41612187 L6.64873915,4.41612187 C6.67385556,4.37680937 6.70164392,4.33696562 6.72996667,4.29234062 L6.81760688,4.29234062 L6.81760688,4.25621562 L6.90310952,4.25621562 L6.90310952,4.21371562 L7.0308291,4.21371562 C7.04525767,4.19087187 7.06182381,4.15846562 7.07358042,4.13509062 L7.19969683,4.13509062 L7.19969683,4.09152812 L7.28840582,4.09152812 L7.28840582,4.05380937 C7.33756984,4.03734062 7.40009365,4.02671562 7.45513598,4.01343437 L7.45513598,3.97199687 L7.5860619,3.97199687 L7.5860619,3.93480937 L8.01090317,3.93480937 L8.01090317,3.89018437 L8.13595079,3.89018437 C8.15251693,3.86627812 8.16427354,3.83705937 8.17870212,3.80890312 C8.25779206,3.76640312 8.39887143,3.76109062 8.52231587,3.76640312 L8.5650672,3.80890312 L8.5650672,3.76640312 C8.60781852,3.75312187 8.64736349,3.74249687 8.6911836,3.72815312 C8.7098873,3.70105937 8.72164392,3.67184062 8.73607249,3.64740312 C8.84562275,3.66068437 8.9626545,3.67184062 9.07434233,3.68777812 L9.07434233,3.64740312 C9.14648519,3.63465312 9.21809365,3.62030937 9.29130529,3.60649687 C9.30199312,3.58205937 9.31962804,3.55496562 9.33191905,3.52255937 L9.41742169,3.52255937 C9.43238466,3.49652812 9.44574444,3.46890312 9.4612418,3.44605937 L9.58468624,3.44605937 L9.58468624,3.40621562 C9.71294021,3.41684062 9.84440053,3.42799687 9.97105132,3.44605937 L9.97105132,3.40621562 C10.0544164,3.37646562 10.139919,3.34830937 10.2254217,3.32227812 L10.2254217,3.28296562 L10.6075116,3.28296562 L10.6075116,3.24365312 C10.6972894,3.21655937 10.7555381,3.22612187 10.8244746,3.19902812 C10.8383688,3.16077812 10.8527974,3.12412187 10.8672259,3.08055937 C11.0238026,3.05134062 11.1483159,2.96155937 11.293136,2.91799687 C11.6335434,2.87496562 11.975554,2.83459062 12.3138238,2.79527812 L12.3138238,2.75171562 L12.5291836,2.75171562 L12.5291836,2.71452812 L12.7386651,2.71452812 L12.7386651,2.67415312 L12.9118079,2.67415312 L12.9118079,2.63324687 L13.0812101,2.63324687 L13.0812101,2.59393437 L13.2126704,2.59393437 L13.2126704,2.55143437 C13.2650407,2.53921562 13.3211519,2.52646562 13.3777974,2.50787187 L13.3777974,2.46962187 C13.5947603,2.45687187 13.8021042,2.44252812 14.0206704,2.42924687 C14.0612841,2.38037187 14.1008291,2.32405937 14.1467868,2.26509062 L14.3177921,2.26509062 L14.3177921,2.22471562 L14.5320831,2.22471562 L14.5320831,2.18540312 L14.8313423,2.18540312 L14.8313423,2.14768437 C14.9868503,2.11793437 15.1455646,2.09084062 15.3000037,2.06374687 L15.3000037,2.02762187 L15.4704746,2.02762187 L15.4704746,1.98193437 L15.7259138,1.98193437 C16.0983847,1.87727812 16.5766651,1.84380937 16.958755,1.73809062 L17.855464,1.73809062 L17.855464,1.70196562 L18.0243317,1.70196562 C18.0403635,1.67434062 18.0515857,1.64618437 18.0692206,1.62068437 C18.1360196,1.60315312 18.2103,1.59305937 18.2803053,1.57871562 L18.2803053,1.53887187 L19.2614481,1.53887187 C19.2726704,1.51018437 19.2897709,1.48096562 19.306337,1.45493437 C19.4597074,1.46874687 19.6152153,1.48096562 19.7739296,1.49849687 L19.7739296,1.45493437 L19.8540884,1.45493437 L19.8540884,1.41562187 C19.9844799,1.37418437 20.1159402,1.33646562 20.2404534,1.29237187 L20.2404534,1.25465312 L20.4114587,1.25465312 L20.4114587,1.21534062 C20.7374376,1.22862187 21.062882,1.23818437 21.3926016,1.25465312 L21.3926016,1.21534062 L21.5208556,1.21534062 L21.5208556,1.17177812 L21.6485751,1.17177812 L21.6485751,1.13140312 L21.7736228,1.13140312 L21.7736228,1.08943437 L22.7109455,1.08943437 L22.7109455,1.04799687 L22.8007233,1.04799687 L22.8007233,1.00974687 L23.095173,1.00974687 L23.095173,0.970434375 L23.3548873,0.970434375 L23.3548873,0.930059375 L23.5649032,0.930059375 L23.5649032,0.889153125 L24.4193952,0.889153125 L24.4193952,0.846121875 L24.5449772,0.846121875 C24.5716968,0.806278125 24.6021571,0.765903125 24.6304799,0.727653125 C24.8586651,0.739340625 25.0863159,0.755809375 25.3118291,0.765903125 L25.3118291,0.727653125 L25.396263,0.727653125 L25.396263,0.681965625 L25.5239825,0.681965625 L25.5239825,0.646903125 L25.610554,0.646903125 L25.610554,0.608121875 L25.8275169,0.608121875 L25.8275169,0.564559375 L27.5247444,0.564559375 L27.7374323,0.564559375 C27.7507921,0.564559375 27.7550672,0.624059375 27.8282788,0.608121875 L27.8282788,0.564559375 C27.881718,0.550215625 27.9356915,0.535340625 27.9955434,0.523121875 L27.9955434,0.483278125 L28.4620672,0.483278125 L28.4620672,0.441309375 L28.5935275,0.441309375 L28.5935275,0.400934375 C28.7522418,0.417403125 28.906681,0.428559375 29.0589825,0.441309375 L29.0589825,0.400934375 L29.2310566,0.400934375 L29.2310566,0.361621875 L29.3603794,0.361621875 L29.3603794,0.317528125 L29.4859614,0.317528125 L29.4859614,0.278215625 C29.6692577,0.223496875 29.822628,0.333996875 29.9156122,0.361621875 L30.8507974,0.361621875 C30.963554,0.377028125 31.0773794,0.387121875 31.1922735,0.400934375 L31.1922735,0.361621875 L31.4477127,0.361621875 L31.4477127,0.317528125 C31.5460407,0.333996875 31.6465063,0.346746875 31.7453688,0.361621875 L31.7453688,0.317528125 L31.8746915,0.317528125 L31.8746915,0.278215625 L32.6837603,0.278215625 L32.6837603,0.317528125 L32.8098767,0.317528125 L32.8098767,0.361621875 C32.9402683,0.400934375 33.0658503,0.441309375 33.195173,0.483278125" id="Fill-1" fill="#DE0816" mask="url(#mask-2)"></path>
                </g>
                <path d="M30.0410339,8.222475 L29.9555312,8.222475 C29.929346,8.2617875 29.8967481,8.3064125 29.8689598,8.34200625 L29.7845259,8.34200625 C29.7738381,8.38663125 29.7583407,8.42594375 29.7444466,8.46738125 L29.6578751,8.54813125 L29.5745101,8.54813125 C29.5338963,8.60125625 29.4858011,8.6570375 29.4451873,8.7091 L29.3607534,8.7091 L29.3607534,8.7484125 C29.2308963,8.791975 29.109055,8.83235 28.9754571,8.87113125 C28.9503407,8.90938125 28.9177429,8.95188125 28.8888857,8.99331875 L28.8044519,8.99331875 C28.7606317,9.05175625 28.7194836,9.1054125 28.6778011,9.1564125 L28.5933672,9.1564125 C28.5629069,9.1967875 28.5340497,9.2361 28.5089333,9.2786 C28.3667852,9.30569375 28.2230339,9.331725 28.0808857,9.35988125 L28.0808857,9.40025625 C28.013018,9.4517875 27.9360656,9.5081 27.8692667,9.56281875 L27.8692667,9.6430375 C27.7805577,9.71156875 27.697727,9.777975 27.6164995,9.84650625 L27.5245841,9.84650625 L27.5245841,9.88581875 L27.4390815,9.88581875 C27.4273249,9.913975 27.4107587,9.939475 27.3984677,9.96763125 L27.315637,9.96763125 C27.2846423,10.0101312 27.2563196,10.0489125 27.232272,10.0914125 C27.0131714,10.117975 26.8004836,10.1450687 26.5893989,10.1700375 C26.5749704,10.1981937 26.562145,10.2252875 26.5477164,10.2507875 L26.4622138,10.2507875 C26.4328222,10.2954125 26.4034307,10.3320687 26.3756423,10.3724437 C26.3189968,10.38785 26.2660921,10.4006 26.2051714,10.4160062 C26.1731079,10.4531937 26.1511979,10.4956937 26.1164624,10.5334125 L26.0352349,10.5334125 C26.0218751,10.5759125 26.0069122,10.61735 25.9946212,10.657725 C25.9620233,10.6688812 25.9369069,10.6826937 25.9091185,10.695975 L25.9091185,10.7799125 L25.8610233,10.7799125 C25.8327005,10.8208187 25.8075841,10.8590687 25.7792614,10.9026312 C25.7343725,10.91485 25.6948275,10.9276 25.6499386,10.9387562 C25.5093937,11.0891 25.3661767,11.2389125 25.2293725,11.3860687 C25.1561608,11.3977562 25.0866899,11.414225 25.0145471,11.4275062 L25.0145471,11.4668187 C24.9728646,11.4827562 24.9290444,11.494975 24.8868275,11.5114437 C24.8210974,11.7595375 24.5811556,11.8843812 24.4192349,12.03685 C24.3465577,12.1176 24.2776212,12.19835 24.2044095,12.2806937 C24.162727,12.3046 24.1189069,12.336475 24.0772243,12.3646312 L24.0772243,12.4464437 L24.0334042,12.4464437 L24.0334042,12.523475 C24.0029439,12.5367562 23.9756899,12.5511 23.9500392,12.56385 L23.9500392,12.6456625 L23.9051503,12.6456625 C23.8613302,12.7683812 23.8191132,12.8895062 23.7774307,13.012225 C23.6908593,13.0754437 23.6064254,13.1461 23.5241291,13.2125062 C23.5070286,13.2805062 23.4958063,13.3511625 23.4824466,13.4165062 L23.4343513,13.4165062 C23.3579333,13.5121312 23.280981,13.585975 23.1388328,13.6189125 C23.1126476,13.7102875 23.103563,13.7145375 23.0533302,13.7798812 L23.0127164,13.7798812 L23.0127164,13.9052562 C22.9833249,13.9169437 22.9560709,13.9291625 22.9266794,13.9440375 C22.9079757,14.0391312 22.8978222,14.1315687 22.8823249,14.2282562 C22.8529333,14.2426 22.8246106,14.2542875 22.800563,14.2675687 L22.800563,14.3908187 L22.7535365,14.3908187 L22.7535365,14.51035 C22.7257481,14.5236312 22.699563,14.5395687 22.6712402,14.5517875 L22.6712402,14.6367875 C22.6407799,14.6474125 22.6129915,14.6596312 22.5846688,14.6713187 L22.5846688,14.7520687 C22.5290921,14.7956312 22.4697746,14.8370687 22.4125947,14.8753187 C22.3725153,15.0384125 22.3249545,15.2025687 22.2870127,15.3630062 C22.2570868,15.3800062 22.2298328,15.392225 22.2047164,15.4039125 L22.2047164,15.5271625 L22.1555524,15.5271625 C22.1443302,15.5802875 22.1272296,15.6350062 22.1149386,15.6860062 L22.0721873,15.6860062 L22.0721873,15.8113812 L22.0305048,15.8113812 L22.0305048,16.7028187 L21.9877534,16.7028187 C21.9738593,16.7586 21.9572931,16.8106625 21.9460709,16.862725 L21.9022508,16.862725 C21.8498804,17.0066937 21.9022508,17.750975 21.9460709,17.8370375 C21.9738593,17.8503187 22.0053884,17.865725 22.0305048,17.8795375 L22.0305048,17.9602875 L22.0721873,17.9602875 L22.0721873,18.0421 L22.1149386,18.0421 C22.1913566,18.2386625 22.0139386,18.4405375 22.0305048,18.5276625 L22.0721873,18.5276625 L22.0721873,18.6482562 L22.1149386,18.6482562 C22.1272296,18.7040375 22.1443302,18.76035 22.1555524,18.8102875 L22.2047164,18.8102875 L22.2047164,18.9356625 C22.2298328,18.9468187 22.2570868,18.9606312 22.2870127,18.9771 L22.2870127,19.0573187 L22.3249545,19.0573187 C22.3591556,19.2066 22.3853407,19.3548187 22.4125947,19.5009125 C22.5002349,19.5726312 22.5846688,19.633725 22.6712402,19.7054437 C22.681928,19.7835375 22.699563,19.8685375 22.7107852,19.948225 C22.7839968,20.0066625 22.8529333,20.0550062 22.9266794,20.1113187 L22.9266794,20.1910062 C22.9560709,20.2037562 22.9833249,20.2191625 23.0127164,20.2324437 C23.0260762,20.3424125 23.0383672,20.45185 23.0533302,20.5586312 L23.0950127,20.5586312 C23.1105101,20.5873187 23.125473,20.6101625 23.1388328,20.6404437 L23.2232667,20.6404437 C23.3098381,20.7371312 23.3926688,20.8301 23.4824466,20.9225375 C23.5364201,20.9331625 23.5919968,20.9506937 23.6481079,20.963975 C23.7245259,21.019225 23.6876529,21.1642562 23.7325418,21.2466 C23.7640709,21.2609437 23.7913249,21.274225 23.8191132,21.2880375 L23.8191132,21.36985 C23.8891185,21.4219125 23.9633989,21.4766312 24.0334042,21.5297562 C24.0489016,21.558975 24.061727,21.584475 24.0772243,21.6126312 L24.162727,21.6126312 C24.2044095,21.6668187 24.2482296,21.7194125 24.2877746,21.775725 L24.374346,21.775725 C24.3946529,21.8835687 24.4395418,21.9760062 24.5009968,22.0620687 C24.5448169,22.0849125 24.5854307,22.1136 24.6303196,22.1406937 L24.6303196,22.2230375 C24.6597111,22.2352562 24.6885683,22.2464125 24.7147534,22.260225 L24.7147534,22.3037875 C24.7713989,22.3160062 24.8275101,22.3276937 24.8868275,22.340975 C24.9172878,22.3845375 24.9424042,22.4227875 24.9728646,22.4626312 L25.0145471,22.4626312 L25.0145471,22.5880062 L25.0530233,22.5880062 L25.0530233,22.6666312 C25.0866899,22.6815062 25.1123407,22.6926625 25.1428011,22.7101937 L25.1428011,22.7936 C25.199981,22.8276 25.2512825,22.8690375 25.3116688,22.9078187 C25.325563,22.9375687 25.3389228,22.9667875 25.3517481,22.9917562 L25.4404571,22.9917562 C25.4559545,23.0177875 25.4693143,23.0486 25.4810709,23.0714437 L25.5238222,23.0714437 L25.5238222,23.1543187 L25.5676423,23.1543187 L25.5676423,23.3152875 L25.6103937,23.3152875 C25.6793302,23.4512875 25.6018434,23.4698812 25.7792614,23.5208812 L25.7792614,23.6005687 C25.9347693,23.6845062 26.079055,23.8592875 26.1634889,24.0053812 C26.1731079,24.0574437 26.1928804,24.1142875 26.2051714,24.1695375 C26.2377693,24.1828187 26.2660921,24.1961 26.2906741,24.2077875 L26.2906741,24.329975 C26.3189968,24.346975 26.3462508,24.3591937 26.3756423,24.372475 L26.3756423,24.4548187 L26.4194624,24.4548187 L26.4194624,24.8580375 L26.3756423,24.8580375 L26.3756423,24.9403812 L26.3366317,24.9403812 L26.3366317,24.9807562 L26.3756423,24.9807562 L26.3756423,25.2639125 C26.3462508,25.277725 26.3189968,25.2952562 26.2906741,25.303225 L26.2906741,25.4270062 L26.2489915,25.4270062 L26.2489915,25.5470687 L26.2051714,25.5470687 L26.2051714,25.5885062 C26.1864677,25.7361937 26.3002931,25.8148187 26.3366317,25.9168187 C26.3756423,26.0517562 26.3344942,26.6047875 26.2906741,26.6834125 C26.2660921,26.6998812 26.2377693,26.7115687 26.2051714,26.7237875 L26.2051714,26.9251312 L26.1634889,26.9251312 C26.1511979,27.092475 26.1362349,27.2507875 26.1164624,27.4149437 C26.0218751,27.4824125 25.9235471,27.5498812 25.8273566,27.6162875 C25.7963619,27.751225 25.7648328,27.887225 25.7343725,28.0226937 C25.6948275,28.048725 25.6499386,28.0779437 25.6103937,28.1050375 C25.502981,28.2139437 25.4110656,28.3892562 25.396637,28.5895375 C25.3116688,28.6187562 25.2293725,28.6431937 25.1428011,28.673475 C25.1262349,28.6995062 25.1123407,28.7266 25.0968434,28.7526312 C25.0423354,28.7616625 24.9851556,28.7770687 24.9290444,28.7940687 C24.9172878,28.8227562 24.8996529,28.8509125 24.8868275,28.8748187 L24.8013249,28.8748187 C24.7879651,28.902975 24.7713989,28.9279437 24.7575048,28.9566312 C24.7003249,28.9683187 24.6410074,28.9826625 24.5854307,28.9932875 L24.5854307,29.038975 L24.5009968,29.038975 L24.5009968,29.07935 C24.3315947,29.0655375 24.162727,29.0511937 23.9917217,29.038975 L23.9917217,29.07935 C23.9051503,29.1053812 23.8191132,29.1330062 23.7325418,29.1601 C23.7047534,29.2700687 23.7245259,29.2504125 23.6064254,29.2828187 C23.5054254,29.3678187 23.3809122,29.3104437 23.2681556,29.3656937 C23.2494519,29.391725 23.2382296,29.417225 23.2232667,29.4432562 L23.1388328,29.4432562 C23.1105101,29.4953187 23.0816529,29.5521625 23.0533302,29.6052875 L22.9667587,29.6052875 C22.9560709,29.6302562 22.938436,29.659475 22.9266794,29.6860375 C22.8823249,29.6966625 22.8379704,29.7152562 22.800563,29.7269437 L22.800563,29.7705062 L22.6712402,29.7705062 C22.6568116,29.7970687 22.6407799,29.820975 22.6274201,29.8470062 L22.5461926,29.8470062 C22.5290921,29.8751625 22.5125259,29.9011937 22.5002349,29.9320062 L22.4125947,29.9320062 L22.4125947,29.9707875 C22.3249545,29.9984125 22.2453302,30.0223187 22.1555524,30.050475 L22.1555524,30.0940375 L21.9022508,30.0940375 C21.8883566,30.0626937 21.8782032,30.03985 21.8578963,30.012225 C21.7884254,30.0223187 21.7184201,30.03985 21.6484148,30.050475 C21.487563,30.03985 21.3341926,30.0223187 21.1776159,30.012225 L21.1776159,30.050475 L21.0910444,30.050475 C21.0792878,30.0796937 21.0627217,30.1025375 21.0514995,30.135475 C20.9927164,30.1471625 20.9376741,30.1583187 20.8820974,30.173725 L20.8820974,30.2172875 C20.7656,30.2008187 20.6539122,30.186475 20.539018,30.173725 C20.5251238,30.2401312 20.5106952,30.309725 20.4973354,30.3750687 C20.2675471,30.4042875 20.0409651,30.4313812 19.8165206,30.4600687 L19.8165206,30.4977875 C19.6465841,30.4871625 19.4723725,30.4728187 19.3061767,30.4600687 L19.3061767,30.4977875 L19.2153302,30.4977875 C19.2009016,30.5254125 19.189145,30.5514437 19.1757852,30.5785375 C19.0314995,30.6699125 18.9753884,30.5881 18.9198116,30.7841312 C18.7781979,30.806975 18.6039862,30.8223812 18.4094677,30.8223812 C18.4094677,30.615725 18.4586317,30.5641937 18.4955048,30.4175687 C18.2518222,30.3681625 18.2251026,30.2597875 17.8969862,30.2528812 C17.8520974,30.309725 17.809346,30.3150375 17.7676635,30.3750687 L17.7291873,30.3750687 L17.7291873,30.4175687 L17.7676635,30.4175687 L17.7676635,30.7017875 C17.6832296,30.7676625 17.5945206,30.8346 17.5132931,30.9031312 L17.5132931,30.942975 L17.3000709,30.942975 C17.2450286,31.010975 17.1873143,31.0795062 17.1274624,31.146975 C16.989055,31.159725 16.8437005,31.1751312 16.701018,31.189475 L16.701018,31.2261312 L16.6171185,31.2261312 L16.6171185,31.2686312 L16.4503884,31.2686312 L16.4503884,31.3100687 L16.318928,31.3100687 L16.318928,31.3515062 C16.2227376,31.3642562 16.1206688,31.3796625 16.021272,31.3897562 L16.021272,31.431725 C15.8962243,31.4450062 15.7615577,31.4582875 15.6370444,31.474225 L15.6370444,31.5135375 C15.5841397,31.5289437 15.5226847,31.5406312 15.4703143,31.55285 C15.4409228,31.5900375 15.409928,31.6346625 15.3805365,31.6761 C15.3003778,31.68885 15.2122032,31.7031937 15.1288381,31.7159437 L15.1288381,31.7573812 L15.045473,31.7573812 L15.045473,31.7998812 L14.8691238,31.7998812 C14.8546952,31.8216625 14.8440074,31.8508812 14.8317164,31.8774437 L14.7446106,31.8774437 C14.7168222,31.916225 14.6895683,31.958725 14.6591079,31.9991 C14.601928,32.0123812 14.5463513,32.0272562 14.4870339,32.0384125 C14.4736741,32.0665687 14.4597799,32.0936625 14.4410762,32.1191625 C14.2754148,32.17335 14.1006688,32.2323187 13.9285947,32.2833187 C13.8783619,32.3486625 13.821182,32.4182562 13.7640021,32.48785 C13.7084254,32.4979437 13.6512455,32.5149437 13.5946,32.5271625 C13.5769651,32.5542562 13.5641397,32.58135 13.5497111,32.6079125 L13.4631397,32.6079125 C13.4070286,32.6753812 13.3546582,32.7417875 13.294272,32.8103187 C13.1980815,32.838475 13.0986847,32.8655687 12.9976847,32.8931937 L12.9976847,32.9712875 C12.9661556,32.9845687 12.939436,33.0026312 12.912182,33.012725 L12.912182,33.1354437 C12.8817217,33.1476625 12.8533989,33.1630687 12.8256106,33.1758187 L12.8256106,33.2565687 C12.7272825,33.3251 12.6252138,33.3904437 12.5290233,33.458975 L12.4403143,33.458975 C12.1982349,33.586475 12.1501397,33.726725 11.7605683,33.7431937 L11.7605683,33.458975 C11.8444677,33.4186 11.9342455,33.3336 12.0165418,33.2958812 C12.0929598,33.284725 12.1565524,33.2709125 12.232436,33.2565687 L12.232436,33.2193812 C12.3190074,33.1476625 12.3558804,33.0897562 12.4798593,33.0541625 L12.4798593,32.9712875 L12.574981,32.9712875 C12.5958222,32.8746 12.7085788,32.698225 12.7855312,32.6488187 L12.8683619,32.6488187 C12.8817217,32.6185375 12.8961503,32.5914437 12.912182,32.570725 L12.9506582,32.570725 C12.9976847,32.4182562 13.040436,32.2700375 13.0810497,32.1191625 C13.1115101,32.1048187 13.1409016,32.0936625 13.1686899,32.0830375 L13.1686899,31.9991 C13.2242667,31.958725 13.2803778,31.916225 13.3370233,31.8774437 L13.3370233,31.7998812 C13.4369545,31.7159437 13.5384889,31.6346625 13.6362825,31.55285 C13.6688804,31.5135375 13.692928,31.474225 13.7196476,31.431725 L13.8024783,31.431725 C13.821182,31.4025062 13.8324042,31.3796625 13.8495048,31.3515062 C13.8783619,31.338225 13.9034783,31.32335 13.9285947,31.3100687 C13.9868434,31.2415375 14.0456265,31.1751312 14.1006688,31.1076625 L14.2754148,31.1076625 L14.2754148,31.0651625 L14.4004624,31.0651625 C14.4651238,30.7634125 14.5655894,30.7267562 14.7857587,30.5785375 C14.8146159,30.5402875 14.8440074,30.4977875 14.8691238,30.4600687 C14.9263037,30.445725 14.9872243,30.4313812 15.045473,30.4175687 C15.0566952,30.3867562 15.0705894,30.360725 15.0839492,30.3357562 C15.1844148,30.2528812 15.2790021,30.173725 15.3805365,30.0940375 L15.3805365,30.012225 C15.409928,29.9984125 15.4409228,29.9819437 15.4703143,29.9707875 L15.4703143,29.9320062 C15.5766582,29.820975 15.7166688,29.77635 15.7615577,29.6052875 L15.8513354,29.6052875 L15.8513354,29.5245375 C15.9491291,29.5006312 15.9566106,29.4910687 16.021272,29.4432562 L16.021272,29.4028812 C16.1089122,29.374725 16.1922772,29.349225 16.2793831,29.3210687 C16.3472508,29.2403187 16.4167217,29.1601 16.4920709,29.07935 C16.5765048,29.0511937 16.6620074,29.0241 16.7469757,28.9932875 C16.8030868,28.9279437 16.8586635,28.8615375 16.9211873,28.7940687 C16.9473725,28.7770687 16.9751608,28.7616625 17.0024148,28.7526312 L17.0024148,28.673475 C17.0579915,28.6341625 17.1162402,28.5895375 17.1755577,28.55235 L17.1755577,28.4731937 C17.2049492,28.456725 17.2289968,28.4402562 17.2594571,28.4285687 L17.2594571,28.3892562 C17.2856423,28.3770375 17.3177058,28.3611 17.343891,28.3467562 L17.343891,28.2676 L17.3855735,28.2676 C17.4443566,28.197475 17.4839016,28.1693187 17.5132931,28.0636 L17.5945206,28.0636 C17.6832296,27.9244125 17.7323937,27.9440687 17.8553037,27.8622562 L17.8553037,27.8197562 C17.9221026,27.7655687 17.9953143,27.7135062 18.0695947,27.6587875 L18.0695947,27.576975 L18.1091397,27.576975 C18.1695259,27.5196 18.1267746,27.5227875 18.2363249,27.4956937 L18.2363249,27.4149437 L18.3239651,27.4149437 C18.4955048,27.2252875 18.6611661,27.037225 18.8332402,26.8454437 L18.9198116,26.8454437 C18.9492032,26.8087875 18.9764571,26.7641625 19.0037111,26.7237875 L19.0892138,26.7237875 C19.1068487,26.6834125 19.1164677,26.641975 19.1287587,26.6047875 L19.1757852,26.6047875 C19.2436529,26.5341312 19.2644942,26.5081 19.3874042,26.4831312 C19.4146582,26.3917562 19.4210709,26.3806 19.4723725,26.323225 L19.5172614,26.323225 L19.5172614,26.238225 C19.5423778,26.2217562 19.5723037,26.2100687 19.6016952,26.19785 L19.6016952,26.1181625 C19.6465841,26.0910687 19.6871979,26.059725 19.7278116,26.0347562 C19.7486529,25.9800375 19.7561344,25.9269125 19.7737693,25.8721937 L19.8165206,25.8721937 C19.8544624,25.7691312 19.7791132,25.6841312 19.7737693,25.6294125 C19.7881979,25.44135 19.8020921,25.2495687 19.8165206,25.0593812 L19.7737693,25.0593812 C19.7881979,24.9403812 19.8020921,24.8176625 19.8165206,24.6965375 L19.7737693,24.6965375 C19.7561344,24.640225 19.7486529,24.5865687 19.7278116,24.5355687 C19.6465841,24.4649125 19.5568063,24.4027562 19.4723725,24.329975 L19.4723725,24.253475 C19.4419122,24.2348812 19.4200021,24.2242562 19.3874042,24.2077875 L19.3874042,24.0861312 L19.3467905,24.0861312 L19.3467905,24.0053812 L19.3061767,24.0053812 L19.3061767,23.8040375 L19.2612878,23.8040375 L19.2612878,23.7232875 C19.2153302,23.6940687 19.1757852,23.6691 19.1287587,23.63935 L19.1287587,23.5208812 L19.0892138,23.5208812 C19.0630286,23.369475 19.033637,23.2217875 19.0037111,23.0714437 C18.9764571,23.0602875 18.9492032,23.0486 18.9198116,23.0331937 L18.9198116,22.9503187 C18.861563,22.9078187 18.8075894,22.8690375 18.7498751,22.8276 L18.7498751,22.74685 C18.7204836,22.7341 18.693764,22.7240062 18.6611661,22.7101937 L18.6611661,22.6283812 L18.6216212,22.6283812 C18.5932984,22.4780375 18.5660444,22.3276937 18.5350497,22.1800062 L18.4955048,22.1800062 C18.467182,22.0992562 18.4388593,22.0185062 18.4094677,21.9361625 L18.3677852,21.9361625 L18.3677852,21.8554125 L18.3239651,21.8554125 C18.3084677,21.775725 18.2967111,21.6965687 18.280145,21.6126312 L18.2363249,21.6126312 L18.2363249,21.4925687 L18.1946423,21.4925687 L18.1946423,21.36985 L18.1486847,21.36985 L18.1486847,21.2466 L18.1091397,21.2466 L18.1091397,21.1238812 L18.0695947,21.1238812 C18.0402032,20.7732562 18.0129492,20.4205062 17.9798169,20.0709437 L17.9397376,20.0709437 L17.9397376,19.948225 L17.8969862,19.948225 L17.8969862,19.829225 L17.8553037,19.829225 C17.809346,19.6942875 17.8879016,19.5965375 17.8969862,19.5009125 C17.8825577,19.2623812 17.8681291,19.01535 17.8553037,18.7715062 C17.8221714,18.6796 17.7158275,18.5436 17.7676635,18.3682875 L17.809346,18.3682875 L17.809346,18.1223187 L17.8553037,18.1223187 L17.8553037,17.8795375 L17.8969862,17.8795375 L17.8969862,17.7600062 L17.9397376,17.7600062 C17.9691291,17.6086 17.9953143,17.4593187 18.0247058,17.3095062 L18.0695947,17.3095062 C18.0808169,17.1612875 18.0952455,17.0162562 18.1091397,16.862725 L18.1486847,16.862725 L18.1486847,16.7453187 L18.1946423,16.7453187 L18.1946423,16.6199437 L18.2363249,16.6199437 L18.2363249,16.5025375 L18.280145,16.5025375 L18.280145,16.4186 L18.3239651,16.4186 L18.3239651,16.2958812 C18.3533566,16.2826 18.3774042,16.2687875 18.4094677,16.2555062 L18.4094677,16.1768812 C18.4388593,16.1620062 18.467182,16.148725 18.4955048,16.1381 L18.4955048,16.055225 L18.5350497,16.055225 C18.5494783,15.92985 18.5660444,15.8113812 18.5799386,15.6860062 C18.6039862,15.6764437 18.6328434,15.6631625 18.6611661,15.6477562 L18.6611661,15.5696625 C18.706055,15.5404437 18.7498751,15.5106937 18.7915577,15.485725 L18.7915577,15.4039125 L18.8332402,15.4039125 L18.8332402,15.3215687 L18.8781291,15.3215687 L18.8781291,15.2025687 L18.9198116,15.2025687 L18.9198116,15.0384125 L18.9609598,15.0384125 C18.9764571,14.9980375 18.9898169,14.958725 19.0037111,14.9172875 C19.0453937,14.8923187 19.0892138,14.865225 19.1287587,14.8370687 L19.1287587,14.7159437 C19.1634942,14.7010687 19.189145,14.6877875 19.2153302,14.6713187 L19.2153302,14.5942875 C19.3312931,14.499725 19.4419122,14.4046312 19.5568063,14.3100687 L19.5568063,14.2282562 C19.5861979,14.2133812 19.615055,14.1990375 19.6465841,14.1868187 C19.6599439,14.0773812 19.6717005,13.9695375 19.6871979,13.8616937 C19.8272085,13.6741625 19.9677534,13.4829125 20.1163143,13.2943187 L20.3268646,13.2943187 C20.3418275,13.1583187 20.3551873,13.0223187 20.3696159,12.8895062 C20.3958011,12.876225 20.4294677,12.863475 20.4513778,12.8491312 L20.4513778,12.7683812 L20.4973354,12.7683812 C20.5106952,12.7120687 20.5251238,12.6562875 20.539018,12.6074125 L20.5828381,12.6074125 L20.5828381,12.523475 L20.6213143,12.523475 L20.6213143,12.4464437 L20.7089545,12.3646312 L20.7089545,12.2806937 C20.7372772,12.2679437 20.7656,12.255725 20.7933884,12.2419125 L20.7933884,12.157975 C20.8217111,12.1468187 20.8500339,12.1292875 20.8820974,12.1176 L20.8820974,12.03685 C20.9237799,12.0118812 20.9638593,11.9816 21.0034042,11.9587562 C21.0210392,11.898725 21.0338646,11.8456 21.0514995,11.7930062 C21.0792878,11.7823812 21.1065418,11.7691 21.1370021,11.7531625 C21.1482243,11.6984437 21.1631873,11.6431937 21.1776159,11.58635 C21.2497587,11.5364125 21.3186952,11.4827562 21.3924413,11.4275062 C21.420764,11.3860687 21.4448116,11.3446312 21.4763407,11.3063812 L21.5212296,11.3063812 L21.5212296,11.2251 C21.6056635,11.1576312 21.6879598,11.0891 21.7734624,11.0221625 C21.8311767,10.874475 21.8883566,10.7241312 21.9460709,10.5759125 L22.0305048,10.5759125 L22.0305048,10.4956937 C22.1555524,10.4250375 22.2870127,10.3639437 22.4125947,10.2954125 C22.4435894,10.1865062 22.4815312,10.1594125 22.5461926,10.0914125 L22.5846688,10.0914125 L22.5846688,10.0101312 L22.6274201,10.0101312 C22.6712402,9.95435 22.7107852,9.9001625 22.7535365,9.84650625 C22.7839968,9.83163125 22.8112508,9.81835 22.8379704,9.8056 L22.8379704,9.72485 C22.8978222,9.6812875 22.9560709,9.6430375 23.0127164,9.6026625 L23.0127164,9.5176625 C23.0383672,9.5081 23.0688275,9.49481875 23.0950127,9.47994375 C23.165018,9.40025625 23.2382296,9.31525625 23.3098381,9.2361 C23.403891,9.20900625 23.5070286,9.18138125 23.6064254,9.1564125 L23.6064254,9.114975 C23.709563,9.03900625 23.7640709,8.94656875 23.9051503,8.90938125 C23.9500392,8.77125625 24.0259228,8.7951625 24.1189069,8.7091 C24.2044095,8.60125625 24.2877746,8.494475 24.374346,8.38663125 L24.4603831,8.38663125 C24.4748116,8.358475 24.4892402,8.33031875 24.5009968,8.3064125 L24.5854307,8.3064125 L24.5854307,8.2617875 L24.6709333,8.2617875 L24.6709333,8.222475 L24.8419386,8.222475 C24.8590392,8.19538125 24.8691926,8.1704125 24.8868275,8.1406625 L24.9728646,8.1406625 L24.9728646,8.0981625 C25.0343196,8.0461 25.0279069,8.07850625 25.0530233,7.98075625 L25.1428011,7.98075625 C25.182346,7.9111625 25.2293725,7.84581875 25.271055,7.7772875 C25.421219,7.66519375 25.5414571,7.76188125 25.6103937,7.53131875 L25.6948275,7.53131875 L25.6948275,7.45163125 L25.7792614,7.45163125 L25.7792614,7.37035 L25.8610233,7.37035 C25.9235471,7.164225 26.0277534,7.244975 26.1164624,7.1249125 L26.1164624,7.04575625 C26.2051714,6.97935 26.2906741,6.91188125 26.3756423,6.8401625 C26.4942772,6.68663125 26.6310815,6.4491625 26.8443037,6.3981625 C26.8752984,6.271725 26.916981,6.30731875 26.9287376,6.2749125 C26.9570603,6.152725 26.9848487,6.03213125 27.0131714,5.9094125 C27.1729545,5.7766 27.3295312,5.64006875 27.4871767,5.50619375 L27.5705418,5.50619375 C27.5828328,5.4759125 27.5999333,5.44881875 27.6164995,5.4227875 L27.8281185,5.4227875 L27.8281185,5.379225 C28.022637,5.3951625 28.2230339,5.41163125 28.4191556,5.4227875 L28.4191556,5.46263125 C28.4619069,5.4759125 28.5089333,5.49238125 28.545272,5.50619375 C28.5629069,5.532225 28.5826794,5.557725 28.5933672,5.58163125 C28.7194836,5.59969375 28.848272,5.6119125 28.9754571,5.62306875 C29.0192772,5.6926625 29.0588222,5.76119375 29.109055,5.8286625 C29.1747852,5.842475 29.246928,5.85894375 29.3174677,5.8701 L29.3174677,5.9094125 L29.4013672,5.9094125 C29.4858011,5.97794375 29.5745101,6.0475375 29.6578751,6.11713125 L29.6578751,6.2345375 L29.7038328,6.2345375 C29.7166582,6.28606875 29.7278804,6.34556875 29.7444466,6.3981625 L29.7845259,6.3981625 C29.8272772,6.58835 29.8689598,6.77375625 29.9159862,6.96394375 L29.9555312,6.96394375 L29.9555312,7.04575625 C30.0410339,7.1142875 30.1276053,7.17963125 30.2131079,7.2502875 L30.2131079,7.57488125 C30.0859228,7.6806 30.0773725,8.02644375 30.0410339,8.222475" id="Fill-3" fill="#231916"></path>
                <g transform="translate(35.269841, 7.711944)">
                    <mask id="mask-4" fill="white">
                        <use xlink:href="#path-3"></use>
                    </mask>
                    <g id="Clip-6"></g>
                    <path d="M18.9764037,7.1202375 L18.9764037,5.21464375 L11.6878376,5.21464375 L11.6878376,2.456925 L18.9764037,2.456925 L18.9764037,0.55133125 L1.64181111,0.55133125 L1.64181111,2.456925 L8.82082698,2.456925 L8.82082698,5.21464375 L1.64181111,5.21464375 L1.64181111,7.1202375 L7.62485873,7.1202375 L0.433551852,14.0227687 L4.06741429,14.0227687 L10.1707,8.11314375 L16.1590915,14.0227687 L19.9212079,14.0227687 L12.8442608,7.1202375 L18.9764037,7.1202375 Z M63.158827,12.2457375 L56.1727265,12.2457375 L56.1727265,9.86733125 L53.7786524,9.86733125 L53.7786524,14.0206437 L65.2146312,14.0206437 L65.2146312,9.86733125 L63.158827,9.86733125 L63.158827,12.2457375 Z M50.8298799,0.47058125 C50.3173984,4.654175 48.1467,8.83564375 47.6438376,9.1411125 L49.7290333,9.1411125 C49.8375148,9.01255 49.9427899,8.87920625 50.0453931,8.74533125 L50.0453931,14.0206437 L52.1182979,14.0206437 L52.1182979,5.3873 L51.9553085,5.3873 C52.6954407,3.58476875 53.0743243,1.78064375 53.1347106,0.47058125 L50.8298799,0.47058125 Z M53.7786524,8.78358125 L65.225319,8.78358125 L65.225319,7.046925 L53.7786524,7.046925 L53.7786524,8.78358125 Z M60.6503931,1.5548625 L60.6503931,0.39514375 L58.2135677,0.39514375 L58.2135677,1.5548625 L53.7786524,1.5548625 L53.7786524,3.11833125 L65.225319,3.11833125 L65.225319,1.5548625 L60.6503931,1.5548625 Z M37.0436471,9.1071125 L38.5757476,9.1071125 L38.5757476,2.903175 L37.0436471,2.903175 L37.0436471,9.1071125 Z M40.2206048,9.10764375 L41.9343984,9.10764375 L41.9343984,2.90370625 L40.2206048,2.90370625 L40.2206048,9.10764375 Z M41.9915783,12.4343312 L40.2206048,12.4343312 L40.2206048,10.6716437 L43.5760492,10.6716437 L43.5760492,1.33864375 L40.2206048,1.33864375 L40.2206048,0.49608125 L38.5757476,0.49608125 L38.5757476,1.33864375 L35.4634513,1.33864375 L35.4634513,1.347675 L35.3977212,1.347675 L35.3977212,10.6716437 L38.5757476,10.6716437 L38.5757476,12.4343312 L35.5238376,12.4343312 L35.5238376,14.0206437 L43.638573,14.0206437 L43.638573,11.4207062 L41.9915783,11.4207062 L41.9915783,12.4343312 Z M53.7786524,5.975925 L65.225319,5.975925 L65.225319,4.24139375 L53.7786524,4.24139375 L53.7786524,5.975925 Z M25.1742767,14.0227688 L26.8159275,14.0227688 L26.8159275,6.76908125 L25.1742767,6.76908125 L25.1742767,14.0227688 Z M32.8299698,6.88808125 L31.2006101,6.88808125 L29.954409,8.8329875 L28.7632503,6.88808125 L27.0216683,6.88808125 L29.1870228,10.106925 L29.1870228,10.502175 L27.2824513,10.502175 L27.2824513,12.0667062 L29.1870228,12.0667062 L29.1870228,14.0206437 L30.8313455,14.0206437 L30.8313455,12.0667062 L32.6087317,12.0667062 L32.6087317,10.502175 L30.8313455,10.502175 L30.8313455,10.13455 L32.8299698,6.88808125 Z M25.1908429,2.1158625 L34.6960651,2.1158625 L34.6960651,0.55133125 L25.1908429,0.55133125 L25.1908429,2.1158625 Z M32.9977688,14.0206437 L34.6404884,14.0206437 L34.6404884,6.7696125 L32.9977688,6.7696125 L32.9977688,14.0206437 Z M33.0720492,4.46026875 L26.8159275,4.46026875 L26.8159275,2.8957375 L25.1742767,2.8957375 L25.1742767,6.01258125 L25.1908429,6.01258125 L25.1908429,6.0258625 L34.6960651,6.0258625 L34.6960651,6.01258125 L34.7179751,6.01258125 L34.7179751,2.8957375 L33.0720492,2.8957375 L33.0720492,4.46026875 Z" id="Fill-5" fill="#DE0816" mask="url(#mask-4)"></path>
                </g>
                <path d="M62.511572,27.2447312 L61.2749899,27.2447312 L61.2749899,25.2992938 L62.3256037,25.2992938 C63.9298471,25.2992938 64.565773,25.2992938 65.1584132,25.5659813 C65.6260058,25.7582937 65.7713603,26.0170125 65.7713603,26.26245 C65.7713603,27.2447312 63.8924397,27.2447312 62.511572,27.2447312 L62.511572,27.2447312 Z M66.4430905,24.3557938 C65.7302122,24.1826063 65.0103868,24.1454188 62.661736,24.1454188 L58.340646,24.1454188 L58.340646,31.0851375 L61.2749899,31.0851375 L61.2749899,28.3986062 L62.7921275,28.3986062 C63.9832862,28.3986062 65.4170587,28.389575 66.3682757,28.1622 C67.2094079,27.9629812 68.5507307,27.446075 68.5507307,26.24545 C68.5507307,25.0889188 67.3013233,24.564575 66.4430905,24.3557938 L66.4430905,24.3557938 Z M51.9514608,29.9105437 C50.3675243,29.9105437 49.4414238,29.4510125 49.0069635,29.048325 C48.6927413,28.7736687 48.3480587,28.334325 48.3480587,27.5645437 C48.3480587,26.557825 48.9668841,25.2153563 51.9514608,25.2153563 C55.1551381,25.2153563 55.5361593,26.7692625 55.5361593,27.5417 C55.5361593,29.520075 53.3350005,29.9105437 51.9514608,29.9105437 L51.9514608,29.9105437 Z M51.9343603,24.0296063 C47.8954291,24.0296063 45.6397624,25.4177625 45.6397624,27.5980125 C45.6397624,29.1747625 47.0778101,31.0920437 51.9706989,31.0920437 C56.5381434,31.0920437 58.2460587,29.354325 58.2460587,27.5703875 C58.2460587,25.5750125 56.1929265,24.0296063 51.9343603,24.0296063 L51.9343603,24.0296063 Z M46.5279212,24.1454188 L35.7032862,24.1454188 L35.7032862,25.2992938 L39.6513709,25.2992938 L39.6513709,31.0851375 L42.5835772,31.0851375 L42.5835772,25.2992938 L46.5279212,25.2992938 L46.5279212,24.1454188 Z" id="Fill-7" fill="#DE0816"></path>
                <path d="M97.7897497,28.4675625 C97.4578926,29.2134375 96.635464,29.9104375 94.8495275,29.9104375 C93.6578344,29.9104375 92.763263,29.6240937 92.2758979,29.2410625 C91.7185275,28.8017187 91.5688979,28.1620937 91.5688979,27.525125 C91.5688979,27.0841875 91.5688979,25.21525 94.8821254,25.21525 C96.2645963,25.21525 97.3617021,25.6163437 97.6956968,26.356375 L100.362311,26.0339062 C100.100459,25.557375 99.7643265,25.15575 99.0941995,24.8120312 C97.6219508,24.069875 95.7585275,24.0295 95.0167921,24.0295 C90.6775328,24.0295 88.7959402,25.7194062 88.7959402,27.6180937 C88.7959402,29.7484062 91.2541413,31.0919375 94.8660937,31.0919375 C99.2267286,31.0919375 100.117025,29.4216875 100.395977,28.88725 L97.7897497,28.4675625 Z M82.0198556,27.9719062 L88.4785116,27.9719062 L88.4785116,26.8169687 L82.0198556,26.8169687 L82.0198556,25.2991875 L88.9808397,25.2991875 L88.9808397,24.1453125 L79.0892524,24.1453125 L79.0892524,31.0898125 L89.2218503,31.0898125 L89.2218503,29.9359375 L82.0198556,29.9359375 L82.0198556,27.9719062 Z M74.216136,26.7330312 C72.0785698,26.4727187 71.4853952,26.2830625 71.4853952,25.8431875 C71.4853952,25.2912187 72.6899138,25.1653125 73.4904323,25.1653125 C75.6135698,25.1653125 75.817173,25.8075937 75.933136,26.1571562 L78.6318132,26.1029687 C78.5179878,24.5565 76.1356704,24.0295 73.5262365,24.0295 C69.6150249,24.0295 68.6686175,25.1955937 68.6686175,25.9404062 C68.6686175,27.4459687 71.6109772,27.8178437 72.9309243,27.9910312 C75.3901942,28.2959687 76.0726122,28.4224062 76.0726122,28.9919062 C76.0726122,29.429125 75.5788344,29.937 73.7004481,29.937 C71.274845,29.937 70.920009,28.985 70.7874799,28.6295937 L68.1801836,28.7544375 C68.7038873,31.0244687 72.2431624,31.0919375 73.6774693,31.0919375 C74.2920196,31.0919375 75.6322735,31.0722812 76.8234323,30.7859375 C77.977718,30.5165937 79.0016122,29.8233125 79.0016122,28.9919062 C79.0016122,27.31475 76.2452206,26.979 74.216136,26.7330312 L74.216136,26.7330312 Z" id="Fill-9" fill="#231916"></path>
            </g>
        </g>
    </g>
</svg>